<svg width="42" height="44" viewBox="0 0 42 44" fill="none" xmlns="http://www.w3.org/2000/svg">
<g clip-path="url(#clip0)">
<path d="M42 0H0V44H42V0Z" fill="#E5E5E5"/>
<path d="M36.3727 0H7.98425C3.57467 0 0 3.53237 0 7.88976V35.9422C0 40.2996 3.57467 43.832 7.98425 43.832H36.3727C40.7823 43.832 44.3569 40.2996 44.3569 35.9422V7.88976C44.3569 3.53237 40.7823 0 36.3727 0Z" fill="url(#paint0_linear)"/>
<g filter="url(#filter0_di)">
<path d="M33.6563 32.4131H29.7002C29.5347 32.4131 29.3987 32.2854 29.3841 32.1226C29.3794 32.0711 29.3743 32.0211 29.369 31.9726C29.1422 29.9298 26.9168 28.1753 24.8524 28.4238C23.3455 28.6052 22.0966 29.7293 20.5882 29.8976C19.5709 30.0111 18.6832 29.9594 17.6687 29.7629C16.7795 29.5908 15.9211 29.2757 15.1311 28.8372C13.2703 27.8044 12.2712 26.741 11.345 25.1387C10.8089 24.2114 10.4264 23.1958 10.2873 22.1368C10.1721 21.2603 10.1794 20.4879 10.276 19.6373C10.4238 18.3379 10.8452 17.0732 11.5329 15.956C12.4983 14.3877 13.5419 13.4126 15.242 12.4997C15.962 12.1131 16.7368 11.8305 17.5372 11.6568C19.5639 11.2169 20.8761 11.3458 22.8463 11.956C23.9425 12.2955 25.1331 13.023 26.1456 13.9723C28.3599 16.0482 28.5287 19.3058 28.5847 22.3215C28.59 22.601 28.3313 22.8125 28.0529 22.7627C26.6854 22.5184 25.7023 22.4987 24.3586 22.7098C23.9983 22.7664 23.7019 22.398 23.7992 22.0506C23.8413 21.8998 23.8744 21.7518 23.8992 21.6059C24.2964 19.2711 22.6795 16.606 20.2949 16.3763C18.9422 16.246 17.6026 16.7918 16.6104 17.8864C16.0182 18.4381 15.6906 19.3034 15.5873 20.2262C15.3196 22.6173 17.2988 24.9295 19.7305 25.0439C20.1945 25.0657 20.6425 24.999 21.1002 24.8457C22.5427 24.3625 23.9488 23.6404 25.4676 23.7534C30.0367 24.0934 33.2458 26.1289 34.0901 31.9218C34.1279 32.1814 33.9218 32.4131 33.6563 32.4131Z" fill="#FAFAFA"/>
</g>
</g>
<defs>
<filter id="filter0_di" x="8.56984" y="11.3963" width="27.1571" height="24.2815" filterUnits="userSpaceOnUse" color-interpolation-filters="sRGB">
<feFlood flood-opacity="0" result="BackgroundImageFix"/>
<feColorMatrix in="SourceAlpha" type="matrix" values="0 0 0 0 0 0 0 0 0 0 0 0 0 0 0 0 0 0 127 0" result="hardAlpha"/>
<feOffset dy="1.63237"/>
<feGaussianBlur stdDeviation="0.816183"/>
<feColorMatrix type="matrix" values="0 0 0 0 0 0 0 0 0 0 0 0 0 0 0 0 0 0 0.07 0"/>
<feBlend mode="normal" in2="BackgroundImageFix" result="effect1_dropShadow"/>
<feBlend mode="normal" in="SourceGraphic" in2="effect1_dropShadow" result="shape"/>
<feColorMatrix in="SourceAlpha" type="matrix" values="0 0 0 0 0 0 0 0 0 0 0 0 0 0 0 0 0 0 127 0" result="hardAlpha"/>
<feOffset dy="1.63237"/>
<feGaussianBlur stdDeviation="1.02023"/>
<feComposite in2="hardAlpha" operator="arithmetic" k2="-1" k3="1"/>
<feColorMatrix type="matrix" values="0 0 0 0 0.219608 0 0 0 0 0.533333 0 0 0 0 1 0 0 0 0.13 0"/>
<feBlend mode="normal" in2="shape" result="effect2_innerShadow"/>
</filter>
<linearGradient id="paint0_linear" x1="53.0913" y1="-66.3077" x2="20.5721" y2="48.7428" gradientUnits="userSpaceOnUse">
<stop stop-color="#5498FF"/>
<stop offset="0.515625" stop-color="#428EFF"/>
<stop offset="1" stop-color="#297FFF"/>
</linearGradient>
<clipPath id="clip0">
<rect width="42" height="44" fill="white"/>
</clipPath>
</defs>
</svg>
