<svg width="45" height="44" viewBox="0 0 45 44" fill="none" xmlns="http://www.w3.org/2000/svg">
<path d="M36.3727 0H7.98425C3.57467 0 0 3.53237 0 7.88976V35.9422C0 40.2996 3.57467 43.832 7.98425 43.832H36.3727C40.7823 43.832 44.3569 40.2996 44.3569 35.9422V7.88976C44.3569 3.53237 40.7823 0 36.3727 0Z" fill="url(#paint0_linear)"/>
<g filter="url(#filter0_di)">
<path d="M33.4541 32.0168H29.498C29.3325 32.0168 29.1965 31.8891 29.1819 31.7263C29.1772 31.6748 29.1721 31.6248 29.1668 31.5763C28.94 29.5335 26.7146 27.779 24.6502 28.0275C23.1433 28.2089 21.8944 29.333 20.386 29.5013C19.3687 29.6148 18.481 29.5631 17.4665 29.3666C16.5773 29.1945 15.7189 28.8794 14.9289 28.4409C13.0681 27.4081 12.069 26.3447 11.1428 24.7424C10.6067 23.8151 10.2242 22.7995 10.0851 21.7405C9.96989 20.864 9.97717 20.0916 10.0738 19.241C10.2216 17.9416 10.643 16.6769 11.3307 15.5597C12.2961 13.9914 13.3397 13.0163 15.0398 12.1034C15.7598 11.7168 16.5346 11.4342 17.335 11.2605C19.3617 10.8206 20.6739 10.9495 22.6441 11.5597C23.7403 11.8992 24.9309 12.6267 25.9434 13.576C28.1577 15.6519 28.3265 18.9095 28.3825 21.9252C28.3878 22.2047 28.1291 22.4162 27.8507 22.3664C26.4832 22.1221 25.5001 22.1024 24.1564 22.3135C23.7961 22.3701 23.4997 22.0017 23.597 21.6543C23.6391 21.5035 23.6722 21.3555 23.697 21.2096C24.0942 18.8748 22.4773 16.2097 20.0927 15.98C18.74 15.8497 17.4004 16.3955 16.4082 17.4901C15.816 18.0418 15.4884 18.9071 15.3851 19.8299C15.1174 22.221 17.0966 24.5332 19.5283 24.6476C19.9923 24.6694 20.4403 24.6027 20.898 24.4494C22.3405 23.9662 23.7466 23.2441 25.2654 23.3571C29.8345 23.6971 33.0436 25.7326 33.8879 31.5255C33.9257 31.7851 33.7196 32.0168 33.4541 32.0168Z" fill="#FAFAFA"/>
</g>
<defs>
<filter id="filter0_di" x="8.36763" y="11" width="27.1571" height="24.2815" filterUnits="userSpaceOnUse" color-interpolation-filters="sRGB">
<feFlood flood-opacity="0" result="BackgroundImageFix"/>
<feColorMatrix in="SourceAlpha" type="matrix" values="0 0 0 0 0 0 0 0 0 0 0 0 0 0 0 0 0 0 127 0" result="hardAlpha"/>
<feOffset dy="1.63237"/>
<feGaussianBlur stdDeviation="0.816183"/>
<feColorMatrix type="matrix" values="0 0 0 0 0 0 0 0 0 0 0 0 0 0 0 0 0 0 0.07 0"/>
<feBlend mode="normal" in2="BackgroundImageFix" result="effect1_dropShadow"/>
<feBlend mode="normal" in="SourceGraphic" in2="effect1_dropShadow" result="shape"/>
<feColorMatrix in="SourceAlpha" type="matrix" values="0 0 0 0 0 0 0 0 0 0 0 0 0 0 0 0 0 0 127 0" result="hardAlpha"/>
<feOffset dy="1.63237"/>
<feGaussianBlur stdDeviation="1.02023"/>
<feComposite in2="hardAlpha" operator="arithmetic" k2="-1" k3="1"/>
<feColorMatrix type="matrix" values="0 0 0 0 0.219608 0 0 0 0 0.533333 0 0 0 0 1 0 0 0 0.13 0"/>
<feBlend mode="normal" in2="shape" result="effect2_innerShadow"/>
</filter>
<linearGradient id="paint0_linear" x1="53.0913" y1="-66.3077" x2="20.5721" y2="48.7428" gradientUnits="userSpaceOnUse">
<stop stop-color="#5498FF"/>
<stop offset="0.515625" stop-color="#428EFF"/>
<stop offset="1" stop-color="#297FFF"/>
</linearGradient>
</defs>
</svg>
